<?xml version="1.0" standalone="no"?>
<!DOCTYPE svg PUBLIC "-//W3C//DTD SVG 20010904//EN"
 "http://www.w3.org/TR/2001/REC-SVG-20010904/DTD/svg10.dtd">
<svg version="1.0" xmlns="http://www.w3.org/2000/svg"
 width="200.000000pt" height="200.000000pt" viewBox="0 0 200.000000 200.000000"
 preserveAspectRatio="xMidYMid meet">
<metadata>
Created by potrace 1.14, written by Peter Selinger 2001-2017
</metadata>
<g transform="translate(0.000000,200.000000) scale(0.100000,-0.100000)"
fill="#000000" stroke="none">
<path d="M136 1233 c-2 -71 -6 -144 -8 -163 l-3 -35 163 -3 162 -2 0 -123 c0
-103 -3 -129 -20 -162 -27 -54 -26 -83 5 -95 23 -9 292 -4 343 6 27 5 29 37 7
91 -11 25 -15 72 -15 159 l0 124 -160 0 -160 0 0 26 c0 14 -5 35 -11 46 -7 12
-11 69 -10 139 l2 119 -145 0 -145 0 -5 -127z m259 76 c11 -11 14 -129 3 -129
-5 0 -8 25 -8 55 0 69 -10 75 -130 75 l-91 0 3 -67 3 -67 105 -4 c58 -2 110
-8 115 -14 6 -6 -32 -7 -110 -4 -136 6 -132 3 -134 102 -1 73 5 77 129 70 58
-4 109 -11 115 -17z m32 -215 c24 -50 13 -54 -143 -54 -149 0 -162 5 -143 59
l11 31 129 0 129 0 17 -36z m319 -95 c18 -15 20 -194 2 -205 -6 -4 -71 -9
-145 -11 l-133 -3 -6 26 c-4 14 -4 60 0 102 9 109 17 114 159 107 60 -2 116
-10 123 -16z m23 -262 c23 -67 0 -77 -182 -77 -123 0 -147 8 -147 50 0 61 -2
60 165 60 l153 0 11 -33z"/>
<path d="M263 1083 c15 -2 37 -2 50 0 12 2 0 4 -28 4 -27 0 -38 -2 -22 -4z"/>
<path d="M518 993 c-24 -6 -38 -56 -38 -131 l0 -65 38 7 c20 3 71 6 112 6 41
0 81 4 89 9 16 10 27 97 17 135 -4 18 -16 28 -44 35 -36 11 -141 13 -174 4z"/>
<path d="M573 753 c9 -2 23 -2 30 0 6 3 -1 5 -18 5 -16 0 -22 -2 -12 -5z"/>
<path d="M950 1260 c0 -24 25 -27 34 -4 9 23 8 24 -14 24 -13 0 -20 -7 -20
-20z"/>
<path d="M1780 1260 c0 -11 7 -20 15 -20 8 0 15 9 15 20 0 11 -7 20 -15 20 -8
0 -15 -9 -15 -20z"/>
<path d="M458 1239 c-18 -18 -17 -19 37 -19 l55 0 0 -34 c0 -25 -5 -35 -20
-39 -17 -4 -20 0 -20 30 0 23 -4 33 -12 31 -8 -3 -14 -29 -16 -72 -2 -52 0
-67 10 -64 7 3 14 14 16 26 2 15 10 22 26 22 31 0 44 17 52 68 5 30 11 42 24
42 15 0 16 -9 12 -75 -3 -52 -1 -75 7 -75 6 0 12 -10 12 -22 1 -17 2 -19 6 -5
3 10 14 17 29 17 31 0 32 27 2 32 -18 2 -24 10 -26 40 -3 31 0 37 19 40 32 4
37 28 6 28 -14 0 -27 6 -30 14 -4 9 -30 16 -74 20 -37 4 -75 9 -83 11 -8 2
-23 -5 -32 -16z"/>
<path d="M787 1254 c-21 -21 -5 -34 43 -34 l50 0 0 -39 c0 -52 -8 -71 -31 -71
-16 0 -19 8 -19 50 0 38 -4 50 -15 50 -12 0 -15 -14 -15 -70 l0 -70 43 6 c23
4 46 10 52 15 16 15 19 133 4 146 -18 14 -102 27 -112 17z"/>
<path d="M1680 1166 c0 -82 0 -84 26 -90 15 -4 32 -2 38 4 8 8 4 12 -12 16
-18 5 -22 13 -22 45 0 32 3 39 20 39 11 0 20 7 20 15 0 8 -9 15 -20 15 -13 0
-20 7 -20 20 0 11 -7 20 -15 20 -12 0 -15 -16 -15 -84z"/>
<path d="M1024 1209 c-8 -13 13 -29 39 -29 28 0 20 -17 -12 -23 -31 -7 -42
-24 -34 -56 6 -22 59 -38 89 -27 24 9 7 26 -27 26 -19 0 -29 5 -29 15 0 8 7
15 15 15 8 0 15 -4 15 -10 0 -5 7 -10 15 -10 19 0 22 89 3 94 -42 13 -68 15
-74 5z"/>
<path d="M1182 1209 c-40 -12 -47 -28 -36 -82 8 -37 13 -42 37 -42 34 1 36
-22 2 -37 -24 -11 -33 -32 -17 -42 4 -2 22 5 40 16 31 19 32 23 32 85 0 47 -3
64 -12 61 -7 -3 -15 -18 -18 -33 -7 -41 -24 -37 -28 6 -3 35 -1 37 32 43 22 4
36 13 36 21 0 17 -19 18 -68 4z"/>
<path d="M1431 1207 c-19 -19 -12 -27 23 -27 42 0 48 -8 40 -49 -9 -44 -34
-40 -34 5 0 24 -4 34 -12 32 -8 -3 -13 -22 -13 -49 l0 -44 40 0 c33 0 40 4 46
25 12 42 10 100 -3 104 -39 12 -76 14 -87 3z"/>
<path d="M950 1139 c0 -52 3 -70 13 -67 7 3 13 29 15 71 2 55 0 67 -13 67 -12
0 -15 -14 -15 -71z"/>
<path d="M1280 1144 c0 -50 3 -64 15 -64 10 0 16 16 21 50 9 69 34 69 34 1 0
-47 13 -72 28 -56 4 3 7 34 7 68 l0 62 -52 1 -53 2 0 -64z"/>
<path d="M1573 1203 c-7 -2 -13 -18 -13 -34 0 -22 6 -32 25 -39 14 -5 25 -14
25 -20 0 -5 -11 -10 -25 -10 -16 0 -25 -6 -25 -15 0 -10 10 -15 28 -15 35 0
47 9 55 38 4 19 0 27 -24 40 -36 21 -37 32 -4 32 16 0 25 6 25 15 0 15 -39 20
-67 8z"/>
<path d="M1780 1139 c0 -52 3 -70 13 -67 7 3 13 29 15 71 2 55 0 67 -13 67
-12 0 -15 -14 -15 -71z"/>
<path d="M1857 1203 c-4 -3 -7 -32 -7 -64 0 -59 8 -68 63 -69 25 0 21 28 -5
32 -18 2 -24 10 -26 40 -3 31 0 37 19 40 38 5 35 28 -3 28 -19 0 -38 -3 -41
-7z"/>
<path d="M1430 1005 c0 -28 24 -34 34 -9 8 20 -1 34 -20 34 -8 0 -14 -10 -14
-25z"/>
<path d="M1350 991 c0 -24 -5 -31 -29 -36 -32 -7 -41 -26 -41 -88 0 -31 4 -39
26 -47 14 -6 39 -10 55 -10 41 0 39 28 -3 32 -31 3 -33 5 -33 42 0 23 5 41 13
44 8 2 12 -8 12 -33 0 -29 3 -36 18 -33 14 3 17 16 20 81 3 72 1 77 -18 77
-15 0 -20 -6 -20 -29z"/>
<path d="M928 988 c-21 -7 -28 -16 -28 -36 0 -34 8 -44 43 -59 33 -15 36 -43
5 -43 -33 0 -49 -13 -38 -30 7 -11 15 -12 49 -1 38 11 41 14 41 49 0 33 -4 39
-30 49 -16 6 -30 18 -30 26 0 9 13 18 30 22 17 4 30 13 30 21 0 16 -32 17 -72
2z"/>
<path d="M1040 906 c0 -67 3 -85 16 -90 28 -11 54 -6 54 9 0 8 -9 15 -20 15
-17 0 -20 7 -20 40 0 33 3 40 20 40 11 0 20 7 20 15 0 8 -9 15 -20 15 -13 0
-20 7 -20 20 0 11 -7 20 -15 20 -12 0 -15 -16 -15 -84z"/>
<path d="M223 940 c0 -25 2 -35 4 -22 2 12 2 32 0 45 -2 12 -4 2 -4 -23z"/>
<path d="M1147 953 c-4 -3 -7 -34 -7 -69 0 -52 3 -62 19 -67 10 -2 26 0 36 5
12 7 20 7 25 -2 16 -27 30 3 30 66 0 57 -2 64 -20 64 -17 0 -20 -7 -20 -49 0
-33 -5 -51 -14 -54 -22 -8 -26 2 -26 60 0 49 -7 63 -23 46z"/>
<path d="M1443 953 c-9 -3 -13 -28 -13 -74 0 -55 3 -69 15 -69 12 0 15 15 15
75 0 41 -1 75 -2 74 -2 0 -9 -3 -15 -6z"/>
<path d="M1507 953 c-14 -13 -6 -21 28 -27 41 -8 44 -12 38 -53 -7 -46 -33
-44 -33 2 0 24 -5 35 -14 35 -23 0 -28 -17 -21 -60 7 -39 8 -40 45 -40 46 0
50 5 57 75 6 52 5 55 -21 65 -31 11 -69 13 -79 3z"/>
<path d="M221 862 c0 -13 4 -32 9 -43 9 -17 21 -19 93 -17 l82 2 -75 3 c-82 4
-97 12 -103 51 -4 24 -4 24 -6 4z"/>
</g>
</svg>
